<svg width="30" height="30" xmlns="http://www.w3.org/2000/svg" version="1.1">

 <g>
  <title>Layer 1</title>
  <g stroke="null" id="svg_25">
   <path stroke="null" fill="#a96002" id="svg_26" fill-rule="evenodd" d="m3.5434,4.52122l22.91121,0c1.20242,0 2.23405,0.76942 2.62666,1.84051l-12.69472,8.46276l0.00092,0.00206c-0.43093,0.28714 -0.91139,0.43002 -1.38889,0.43002c-0.46465,0 -0.93111,-0.13623 -1.35337,-0.40731l-0.03463,-0.02477l-12.69472,-8.46276c0.39264,-1.07126 1.42424,-1.84051 2.62666,-1.84051l0.00089,0zm25.70767,3.5037l0,14.65864c0,0.27911 -0.04243,0.54836 -0.11834,0.80295l-8.9442,-9.41918l9.06397,-6.04265l-0.00143,0.00023zm-0.93616,16.74175c-0.49515,0.44287 -1.14718,0.71212 -1.85929,0.71212l-22.91121,0c-0.71212,0 -1.36412,-0.27017 -1.85929,-0.71212l9.3728,-9.8695l1.73588,1.15704l0.04541,0.02752c0.66879,0.43507 1.41549,0.652 2.16201,0.652c0.76349,0 1.52493,-0.22682 2.20446,-0.67953l0.00206,-0.00092l0.00092,0.00092l1.73588,-1.15704l9.3728,9.8695l-0.00242,0.00001zm-27.44907,-1.28022c-0.07683,-0.25457 -0.11834,-0.52382 -0.11834,-0.80295l0,-14.65864l9.06397,6.04265l-8.9442,9.41918l-0.00143,-0.00023z"/>
  </g>
 </g>
</svg>