<?xml version="1.0" encoding="utf-8"?>
<!-- Generator: Adobe Illustrator 16.0.0, SVG Export Plug-In . SVG Version: 6.00 Build 0)  -->
<!DOCTYPE svg PUBLIC "-//W3C//DTD SVG 1.1//EN" "http://www.w3.org/Graphics/SVG/1.1/DTD/svg11.dtd">
<svg version="1.1" xmlns="http://www.w3.org/2000/svg" xmlns:xlink="http://www.w3.org/1999/xlink" x="0px" y="0px"
	 width="332.974px" height="343.999px" viewBox="0 0 332.974 343.999" enable-background="new 0 0 332.974 343.999"
	 xml:space="preserve" preserveAspectRatio="none">
<g id="Layer_2">
	
		<rect x="59.179" y="64.692" transform="matrix(0.7071 0.7071 -0.7071 0.7071 170.385 -67.3462)" fill="#E0E1DD" width="214.615" height="214.615"/>
</g>
<g id="Layer_3">
	<g>
		<path fill="#FA8E00" d="M330.872,269.64c-18.082-2.887-28.523-15.491-37.924-29.538c-14.884-22.242-30.063-44.291-44.604-66.75
			c-1.814-2.803-2.121-8.655-0.398-11.345c12.605-19.673,25.738-39.017,39.044-58.229c10.576-15.272,23.785-26.918,43.449-28.624
			c0.727-0.063,1.367-1.083,3.535-2.912c-32.541,0-63.397,0-94.253,0c-0.15,0.614-0.299,1.229-0.447,1.843
			c3.234,0.886,6.477,1.745,9.701,2.662c10.383,2.954,13.816,8.909,8.447,18.15c-9.119,15.691-19.445,30.683-30.156,47.359
			c-6.444-9.539-12.149-17.402-17.097-25.716c-1.212-2.04-0.746-5.89,0.296-8.333c12.347-28.948,24.935-57.795,37.494-86.651
			c3.768-8.653,10.207-13.951,19.492-16.276c3.041-0.761,5.598-3.464,8.375-5.279c-27.818,0-55.637,0-83.456,0
			c2.643,1.781,5.058,4.438,7.966,5.192c14.012,3.63,17.197,7.995,12.467,21.732c-4.605,13.378-10.371,26.38-16.193,39.293
			c-1.04,2.31-4.796,4.725-7.364,4.798c-7.582,0.216-15.17,0.323-22.759,0.329v33.554c10.326,9.199,10.326,12.383,0,29.289v209.811
			c14.056,0,28.112,0,42.168,0c-1.987-1.365-3.864-3.699-5.981-3.943c-16.342-1.891-21.703-6.951-22.183-23.07
			c-0.421-14.199-0.088-28.422-0.088-44.111c9.728,0,19.229,0,28.729,0c0.182-0.953,0.364-1.91,0.548-2.863
			c-2.492-0.928-4.928-2.059-7.482-2.752c-14.383-3.91-17.244-9.936-9.337-22.631c10.546-16.926,21.854-33.379,33.979-51.771
			c7.094,10.52,13.467,19.852,19.717,29.268c5.057,7.617,10.293,15.145,14.863,23.051c7.518,13.004,3.975,20.418-10.555,23.247
			c-1.805,0.352-3.566,0.918-5.193,3.199c28.494,0,56.989,0,85.536,0C331.077,270.794,331.061,269.671,330.872,269.64z
			 M207.884,170.213c-8.434,12.805-17.048,25.49-26.427,39.422c-4.309-23.672,0.747-43.428,13.979-64.004
			c4.864,7.404,9.075,13.555,12.925,19.926C209.021,166.649,208.668,169.022,207.884,170.213z"/>
		<path fill="#FA8E00" d="M3.766,271.62c28.547,0,57.041,0,85.535,0c-1.625-2.282-3.389-2.849-5.191-3.2
			c-14.531-2.828-18.072-10.242-10.557-23.246c4.57-7.906,9.809-15.434,14.865-23.051c6.248-9.416,12.621-18.748,19.717-29.268
			c12.123,18.393,23.432,34.846,33.978,51.771c7.907,12.695,5.046,18.721-9.337,22.631c-2.555,0.693-4.99,1.824-7.482,2.753
			c0.184,0.953,0.366,1.91,0.548,2.863c9.501,0,19.002,0,28.729,0c0,15.689,0.333,29.912-0.088,44.111
			c-0.479,16.119-5.841,21.18-22.183,23.07c-2.117,0.244-3.994,2.578-5.981,3.943c14.056,0,28.112,0,42.168,0V134.187
			c-10.326-16.906-10.326-20.089,0-29.289V71.344c-7.589-0.005-15.177-0.112-22.759-0.329c-2.568-0.074-6.324-2.489-7.364-4.798
			c-5.822-12.913-11.588-25.915-16.193-39.293c-4.73-13.737-1.545-18.103,12.467-21.732c2.908-0.753,5.323-3.411,7.966-5.192
			c-27.818,0-55.638,0-83.456,0c2.779,1.815,5.334,4.518,8.377,5.279c9.283,2.326,15.725,7.624,19.49,16.276
			c12.561,28.856,25.147,57.703,37.494,86.651c1.042,2.443,1.508,6.293,0.296,8.333c-4.947,8.313-10.652,16.177-17.097,25.716
			c-10.711-16.675-21.035-31.667-30.154-47.359c-5.371-9.241-1.936-15.197,8.445-18.15c3.227-0.917,6.467-1.775,9.703-2.662
			c-0.15-0.614-0.299-1.229-0.447-1.843c-30.857,0-61.713,0-94.254,0c2.168,1.829,2.809,2.849,3.535,2.912
			c19.664,1.706,32.873,13.352,43.449,28.624c13.307,19.212,26.439,38.555,39.043,58.229c1.725,2.689,1.416,8.542-0.398,11.345
			c-14.541,22.459-29.719,44.508-44.604,66.75c-9.4,14.047-19.842,26.65-37.924,29.537C3.912,269.67,3.896,270.794,3.766,271.62z
			 M126.611,165.557c3.85-6.371,8.061-12.521,12.925-19.925c13.232,20.576,18.288,40.332,13.979,64.003
			c-9.379-13.932-17.993-26.617-26.427-39.422C126.305,169.021,125.951,166.648,126.611,165.557z"/>
	</g>
</g>
</svg>
